<svg  viewBox="0 0 52 68" fill="none" xmlns="http://www.w3.org/2000/svg">
    <path fill-rule="evenodd" clip-rule="evenodd" d="M21.2661 59.1051C22.3699 59.1053 22.9847 59.6922 23.2642 60.2092H23.2915L23.3474 59.2443H24.3669C24.3393 59.702 24.3123 60.2165 24.3123 60.9913V64.709C24.3123 66.1764 24.0183 67.0706 23.4034 67.6297C22.7885 68.2165 21.8801 68.3981 21.0696 68.3981C20.2591 68.398 19.4629 68.2165 18.9459 67.8671L19.2394 66.9868C19.6586 67.2524 20.3293 67.4904 21.1119 67.4905C22.2998 67.4905 23.1809 66.8747 23.1809 65.2536V64.5411H23.1523C22.7889 65.1421 22.1041 65.618 21.1119 65.618C19.5326 65.6179 18.3864 64.2756 18.3864 62.5007C18.3864 60.3346 19.7987 59.1051 21.2661 59.1051ZM21.4749 59.9854C20.3712 59.9856 19.5753 60.9216 19.5751 62.4025C19.5751 63.6603 20.2035 64.709 21.4613 64.709C22.1739 64.709 22.8174 64.2621 23.069 63.5216C23.1389 63.326 23.1659 63.1017 23.1659 62.9061V61.746C23.1659 61.5504 23.1662 61.3827 23.0963 61.2151C22.8866 60.5443 22.3134 59.9854 21.4749 59.9854Z" fill="#726965"/>
    <path fill-rule="evenodd" clip-rule="evenodd" d="M3.23706 59.0915C4.78818 59.0915 5.94867 60.4043 5.94892 62.3465C5.94892 64.6523 4.5511 65.7856 3.04189 65.7858C2.18938 65.7858 1.44846 65.4215 1.07112 64.7786H1.04246V68.2588H-0.102614V61.327L-0.117627 61.3134C-0.117627 60.4888 -0.145633 59.8316 -0.173584 59.2307H0.875949L0.930541 60.3348H0.959202C1.43436 59.5522 2.18893 59.0915 3.23706 59.0915ZM2.87402 59.9991C2.07741 59.9991 1.33703 60.5724 1.11342 61.4389C1.0715 61.5787 1.02881 61.7602 1.02881 61.9139V63.018C1.02881 63.1856 1.05683 63.3532 1.08476 63.493C1.29439 64.3035 1.99324 64.8481 2.83171 64.8482C4.06154 64.8482 4.77381 63.8426 4.77383 62.3752C4.77383 61.0895 4.10372 59.9992 2.87402 59.9991Z" fill="#726965"/>
    <path fill-rule="evenodd" clip-rule="evenodd" d="M14.3056 59.0765C16.0805 59.0765 17.3805 60.4186 17.3805 62.3752C17.3805 64.737 15.745 65.7708 14.1937 65.7708C12.461 65.7707 11.134 64.4995 11.1338 62.4734C11.1338 60.3353 12.5308 59.0765 14.3056 59.0765ZM14.2783 59.9567C12.9088 59.9567 12.3076 61.229 12.3075 62.4448C12.3075 63.8422 13.1178 64.904 14.2497 64.9042C15.3816 64.9042 16.193 63.8567 16.1931 62.4175C16.1931 61.3275 15.6476 59.9571 14.2783 59.9567Z" fill="#726965"/>
    <path fill-rule="evenodd" clip-rule="evenodd" d="M32.4602 59.0915C34.4164 59.0915 34.8921 60.4321 34.8923 61.7037V64.0935C34.8923 64.6525 34.9203 65.1984 35.0042 65.6316H33.956L33.8578 64.8209H33.8155C33.4521 65.3239 32.7677 65.7706 31.8597 65.7708C30.5601 65.7708 29.9027 64.8629 29.9026 63.9406C29.9026 62.3893 31.2722 61.5505 33.7459 61.5645V61.4389C33.7459 60.9079 33.606 59.9567 32.2923 59.9567C31.6914 59.9568 31.0759 60.1396 30.6286 60.4331L30.3639 59.6633C30.8949 59.3141 31.6638 59.0915 32.4602 59.0915ZM33.7882 62.3615C32.5166 62.3336 31.0768 62.5567 31.0763 63.8C31.0763 64.5547 31.5795 64.9041 32.1804 64.9042C33.019 64.9042 33.5365 64.3737 33.7322 63.8287C33.7741 63.717 33.8017 63.5774 33.8018 63.4657V62.3615H33.7882Z" fill="#726965"/>
    <path d="M49.7618 59.0765C50.4046 59.0765 50.9775 59.2586 51.3409 59.4682L51.0475 60.3212C50.796 60.1675 50.3352 59.9433 49.7345 59.9431C49.0498 59.9431 48.6577 60.3346 48.6577 60.8098C48.6577 61.3408 49.0352 61.5788 49.8737 61.9002C50.9777 62.3195 51.5511 62.8784 51.5511 63.8287C51.551 64.9466 50.6843 65.7434 49.1613 65.7435C48.4625 65.7435 47.8056 65.575 47.3584 65.3095L47.6518 64.4292C48.0012 64.6528 48.6017 64.8904 49.1886 64.8905C50.041 64.8905 50.4332 64.4716 50.4333 63.9406C50.4333 63.3816 50.0971 63.0883 49.2446 62.7669C48.0986 62.3616 47.5536 61.7176 47.5536 60.949C47.5539 59.9151 48.3925 59.0765 49.7618 59.0765Z" fill="#726965"/>
    <path d="M43.8358 59.0915C44.6883 59.0915 45.932 59.6498 45.9322 61.8716V65.6452H44.8008V62.0258C44.8008 60.7959 44.3532 60.055 43.4168 60.055C42.7603 60.0551 42.2438 60.5441 42.048 61.1168C41.9921 61.2704 41.9498 61.4942 41.9497 61.7037V65.6589H40.8169V61.8306C40.8169 60.8104 40.3697 60.0687 39.4753 60.0687C38.749 60.0689 38.2186 60.656 38.0368 61.2287C37.9669 61.3964 37.9385 61.6063 37.9385 61.802V65.6589H36.8071V60.9913L36.7921 60.964C36.7921 60.3071 36.792 59.7617 36.7361 59.2307H37.757L37.813 60.2652H37.8553C38.2186 59.6503 38.8049 59.0915 39.867 59.0915C40.7335 59.0915 41.404 59.6224 41.6835 60.3771H41.7122C41.9079 60.0137 42.1591 59.7474 42.4246 59.5378C42.8019 59.2444 43.2351 59.0915 43.8358 59.0915Z" fill="#726965"/>
    <path d="M10.2385 59.0915C10.3642 59.0915 10.4625 59.0906 10.5742 59.1324V60.2365C10.4625 60.2086 10.3362 60.1956 10.1825 60.1956C9.35827 60.1958 8.78482 60.8098 8.61711 61.69C8.58916 61.8438 8.56252 62.0403 8.56252 62.236V65.6452H7.41608V61.2438L7.40244 61.2287C7.40244 60.4743 7.40236 59.8315 7.34648 59.2307H8.36599L8.40829 60.489H8.46425C8.75769 59.6367 9.45603 59.0917 10.2385 59.0915Z" fill="#726965"/>
    <path d="M28.9936 59.0915C29.1193 59.0915 29.2177 59.0906 29.3294 59.1324V60.2365C29.2176 60.2086 29.0913 60.1956 28.9377 60.1956C28.1135 60.1959 27.5413 60.81 27.3736 61.69C27.3456 61.8438 27.3176 62.0403 27.3176 62.236V65.6452H26.1712V61.2438L26.1576 61.2287C26.1576 60.4743 26.1575 59.8315 26.1016 59.2307H27.1211L27.1634 60.489H27.2194C27.5128 59.6367 28.2112 59.0917 28.9936 59.0915Z" fill="#726965"/>
    <path d="M17.4228 49.8531C17.4229 52.5782 18.6242 53.7236 20.2452 53.7237C22.048 53.7237 23.1945 52.5363 23.1946 49.8531V42.6702H24.7736V49.7549C24.7736 53.4863 22.803 55.0093 20.1756 55.0093C17.688 55.0093 15.8151 53.5839 15.8151 49.8245V42.6702H17.4228V49.8531Z" fill="#726965"/>
    <path fill-rule="evenodd" clip-rule="evenodd" d="M40.9015 42.4736C44.1577 42.4737 46.3662 45.0178 46.3662 48.6234L46.358 48.9947C46.2061 52.9242 43.7256 55.0092 40.72 55.0093C37.6176 55.0093 35.2555 52.5226 35.2553 48.8473C35.2553 44.99 37.6452 42.4736 40.9015 42.4736ZM40.8456 43.7456C38.2321 43.7456 36.9463 46.1356 36.9463 48.805C36.9464 51.4042 38.3576 53.7233 40.8169 53.7237C43.2765 53.7237 44.716 51.4324 44.7161 48.6794C44.7161 46.2617 43.4589 43.7457 40.8456 43.7456Z" fill="#726965"/>
    <path d="M35.1298 43.9968H31.412V54.8142H29.833V43.9968H26.1425V42.6702H35.1298V43.9968Z" fill="#726965"/>
    <path fill-rule="evenodd" clip-rule="evenodd" d="M14.5717 54.8005H12.8944L11.5951 50.9845H7.29052L6.03217 54.8005H4.41079L8.53386 42.6552H10.42L14.5717 54.8005ZM9.41415 44.0527C9.23248 44.7794 9.03756 45.5067 8.79999 46.2473L7.61125 49.7549H11.2689L10.0856 46.2746C9.82018 45.4782 9.63811 44.7653 9.45646 44.0527H9.41415Z" fill="#726965"/>
    <path d="M25.6176 2.51529C28.5235 2.51529 30.9706 3.14235 32.9588 4.39647C34.9776 5.65058 36.5071 7.47059 37.5471 9.85647C38.5871 12.2118 39.1071 15.1024 39.1071 18.5282C39.1071 22.1682 38.4647 25.2424 37.18 27.7506C35.8953 30.2588 34.1212 32.1553 31.8576 33.44C29.5941 34.7247 26.9482 35.3671 23.92 35.3671C22.4212 35.3671 20.9682 35.2141 19.5612 34.9082C18.1847 34.6024 16.9765 34.1282 15.9365 33.4859L17.68 29.9071C18.5365 30.4576 19.4847 30.8553 20.5247 31.1C21.5953 31.3141 22.7118 31.4212 23.8741 31.4212C27.1165 31.4212 29.7012 30.4118 31.6282 28.3929C33.5553 26.3435 34.5188 23.3153 34.5188 19.3082C34.5188 18.6659 34.4882 17.9012 34.4271 17.0141C34.3659 16.1271 34.2282 15.2553 34.0141 14.3988L35.5282 15.9588C35.1 17.3659 34.3812 18.5588 33.3718 19.5376C32.3929 20.4859 31.2 21.2047 29.7929 21.6941C28.4165 22.1529 26.9024 22.3824 25.2506 22.3824C23.14 22.3824 21.2588 21.9847 19.6071 21.1894C17.9553 20.3941 16.6553 19.2776 15.7071 17.84C14.7588 16.3718 14.2847 14.6435 14.2847 12.6553C14.2847 10.5753 14.7741 8.78588 15.7529 7.28706C16.7624 5.75764 18.1235 4.58 19.8365 3.75411C21.58 2.92823 23.5071 2.51529 25.6176 2.51529ZM25.8012 6.23176C24.4247 6.23176 23.2012 6.49176 22.1306 7.01176C21.06 7.53176 20.2188 8.25059 19.6071 9.16823C19.0259 10.0859 18.7353 11.1871 18.7353 12.4718C18.7353 14.3682 19.3929 15.8824 20.7082 17.0141C22.0235 18.1153 23.7976 18.6659 26.0306 18.6659C27.4988 18.6659 28.7835 18.3906 29.8847 17.84C31.0165 17.2894 31.8882 16.54 32.5 15.5918C33.1424 14.6435 33.4635 13.5882 33.4635 12.4259C33.4635 11.2941 33.1729 10.2694 32.5918 9.35176C32.0106 8.43411 31.1541 7.6847 30.0224 7.10353C28.8906 6.52235 27.4835 6.23176 25.8012 6.23176Z" fill="#726965"/>
</svg>
